<svg id="Layer_1" data-name="Layer 1" xmlns="http://www.w3.org/2000/svg" viewBox="0 0 112.5 150"><title>edit</title><g id="Element"><path id="Female" d="M512.88,349.42c-2.3-2.24-9.32-.53-11.71-4.29a3.84,3.84,0,0,1-.31-1.51c4,0.35,8.55.21,7.22-2.36-2.85-5.51,1.66-7.93-1.68-14.41-3.67-7.12-14.76-7.12-18.44,0-3.34,6.49.8,8.9-2,14.41-1.33,2.57,3.23,2.71,7.22,2.36a3.83,3.83,0,0,1-.31,1.51c-2.39,3.76-9.41,2.05-11.71,4.29s-3.27,4.85-2,5.86c2.94,2.39,8.76,3.42,15.16,3.72l2.3-8.45-2.47-2.47,5.84,0-2.47,2.47,2.3,8.43c6.39-.3,12.22-1.33,15.16-3.72C516.15,354.27,515.29,351.77,512.88,349.42Z" transform="translate(-455.75 -309)" fill="#f2efe2"/><path d="M530.75,309h-75V459h112.5V347.75a3.56,3.56,0,0,0-.87-2.15l-34.51-35.7A3.38,3.38,0,0,0,530.75,309Zm-70,5h68a1.25,1.25,0,0,1,1.25,1.25V346a1.25,1.25,0,0,0,1.25,1.25H562a1.25,1.25,0,0,1,1.25,1.25V454H460.75V314Z" transform="translate(-455.75 -309)" fill="#f2efe2"/><rect x="22.5" y="65" width="70" height="5" rx="1.25" ry="1.25" fill="#f2efe2"/><rect x="22.5" y="125" width="70" height="5" rx="1.25" ry="1.25" fill="#f2efe2"/><rect x="22.5" y="95" width="70" height="5" rx="1.25" ry="1.25" fill="#f2efe2"/><rect x="22.5" y="80" width="70" height="5" rx="1.25" ry="1.25" fill="#f2efe2"/><rect x="22.5" y="110" width="70" height="5" rx="1.25" ry="1.25" fill="#f2efe2"/></g></svg>