<svg id="Layer_1" data-name="Layer 1" xmlns="http://www.w3.org/2000/svg" viewBox="0 0 58.19 133.37"><title>hamil</title><circle cx="22.87" cy="14.01" r="14.01" fill="#f2efe2"/><path d="M555.53,357.36a19.32,19.32,0,0,0-16.41-19.1,6.25,6.25,0,0,0,1.64-2.62,6.57,6.57,0,0,0-4.4-8.17,6.86,6.86,0,0,0-3.16-.24l-0.85-4.9c-0.66-3.86-2.56-7-7.11-7l-3.07,0h-7.35c-3.61,0-6,3.15-6.63,7l-10.86,70.52h17.36v17.65a6.5,6.5,0,0,0,6.46,6.42c3.47,0,7-2.87,7-6.42V392.84H544.5l-2.92-16.92A19.32,19.32,0,0,0,555.53,357.36ZM540.62,359c-10.14.26-19.7-3.08-23.91-12.68A36.32,36.32,0,0,1,513.86,330c0.19-6.55,10.21-6.55,10.3.07,0,1.19-.06,2.39,0,3.58a11.68,11.68,0,0,1,.11,1.34c0.07,0.48.15,1,.24,1.44a27.1,27.1,0,0,0,1,3.81c0.67,1.85,2.29,4.78,4.29,6.1,3.31,2.18,6.9,2.57,10.84,2.36C547.33,348.36,547.69,358.83,540.62,359Z" transform="translate(-497.34 -283.54)" fill="#f2efe2"/></svg>