<svg id="Layer_1" data-name="Layer 1" xmlns="http://www.w3.org/2000/svg" viewBox="0 0 229.03 178.47"><title>history</title><path d="M338.57,361.51a9.42,9.42,0,0,0,4.54-2.26,1.37,1.37,0,0,0,.48-1.14c1.6-.07,3.67-1,3.17-2.36a4.44,4.44,0,0,0,1.44-.34c2.42-1.08,1-.66,4-0.68a5.8,5.8,0,0,0,3.48-1.23,8.53,8.53,0,0,0,4.2-1l0,0c1.57,1.1,6.25-1.13,4-2.69l-2.51-2c-1.41-1.25-5.74.44-5,1.84a4.14,4.14,0,0,0-.49-0.59c-1.31-1.32-6.09,0-4.75,2.12a16,16,0,0,0-3.27.26c-1.35.36-3.09,0.94-1.14,1a10.22,10.22,0,0,0-3.69.39c-4.13-1-8.62,2.89-5.19,5-1.27-.77-5,0.06-4.59,2,0.64,3.2-2.08,2.53-4.84,1.11-0.51-4-3.11-5.44-7.19-5.21a3.49,3.49,0,0,0-2.72,1.46c-0.93,1.85,1.23,4,4.42,5.68,0,0,0,0,0,.05l0.13,0.28a2.06,2.06,0,0,0,2.27.92l0.31,0,0.12,0C331.22,366,337.62,366.08,338.57,361.51Z" transform="translate(-253.65 -276)" fill="#f2efe2"/><path d="M353,376.29c2.14-.57,4-1.7,4.35-3.24a7.37,7.37,0,0,0,2.34,1.68c0.85,0.39,5-.35,4.67-1.76-0.61-2.54-1.81-2.86-3.21-2.73-0.6-1.17-.24-2.41,1.14-3.74a14.32,14.32,0,0,1,4.29,1.29,21.49,21.49,0,0,0,7.33,1.84c1.93,0,4.29-.57,5.27-2.21,1.51-.6,2.87-1.56,1.12-1.83l-1.58-.24c-0.84-.13-4.07.36-4.19,1.57,0,0.26-4.83-1.79-6.8-2.37a14.34,14.34,0,0,0-7.46,0c-3,.81-4.43,2.89-4.38,5-1.2-.83-5.7.91-4.73,1.89,1.68,1.71,1.25,2.22.55,2.14a8.91,8.91,0,0,0-1.41-1.17c-1-.7-5,0-5,1.6a2.27,2.27,0,0,0,1.31,2q-0.79,3.51-3.72,1a1.43,1.43,0,0,0,.89-1.1c0-5-5.41-4.05-8.35-2.63a1.51,1.51,0,0,0-1.06,1.16c0.13,4.41,9.09,7.15,12.64,6.57C350.35,380.5,353.06,378.59,353,376.29Z" transform="translate(-253.65 -276)" fill="#f2efe2"/><path d="M380.2,385.93a11,11,0,0,1-2.11-1c-0.84-.46-5.62.76-5,1.57,0.13,0.17.22,0.32,0.32,0.47-1.21-.35-4.47.29-4.67,1.43s0.55,1.94,1.73,2.36c-0.17.84-2,1.13-3.38,1.17-0.6,0-4,.65-3.68,1.74,0.67,2.55-1.64.67-3.63,0.14a22.29,22.29,0,0,0-6.47-.68c-2.07.05-7.06,1.39-6.86,4.25,0.6,8.73,13.88,6.09,10.82-1.13a28.79,28.79,0,0,0,5.06,1.05c2.77,0.23,5.86-.76,6.32-3.22a10.58,10.58,0,0,0,4.88-1,3.27,3.27,0,0,0,1.89-2.27c1.75-.42,3.27-1.3,3.69-2.6a4.31,4.31,0,0,0,3.55-2.1C382.88,385.8,381.56,385.72,380.2,385.93Zm-28.29,11.34c0.39,1,.67,2.28,1.39,2.82C352,399.11,351.66,398.08,351.91,397.27Z" transform="translate(-253.65 -276)" fill="#f2efe2"/><path d="M321.5,343.94a12.05,12.05,0,0,0,9.69-.47A4.53,4.53,0,0,0,333,342a5.76,5.76,0,0,0,4.08-3.21,5,5,0,0,0,2.93-.87c1.9,0.14,4.36-1.42,3.15-3a3.54,3.54,0,0,0-2-1.4,3.38,3.38,0,0,0-3.94,1.45l-0.2-.59c-1.25-.86-4.64-0.27-4.59,1.69l-1.67,1a6.11,6.11,0,0,0-1.67-.64c-1.34-.28-4.65,1.31-3.23,3a7.72,7.72,0,0,0,1.11,1.09,1.86,1.86,0,0,1-2.65,0,1.35,1.35,0,0,0-.59-1.21l-1.24-.94c-1.66-1.25-5.5.35-4.33,2.64,0,0.06.07,0.12,0.11,0.18a15.75,15.75,0,0,0-9.53-2.41,26.28,26.28,0,0,0-9-5.24c-2.24-.76-6.05,2.46-3,3.51a17.11,17.11,0,0,1,6,3.07c-4,1.93-5.19,5.71,2,10.24,1.64,1,9,5,9.3-.19a12.34,12.34,0,0,0-1.49-6.52c0.18,0.07.37,0.14,0.55,0.22C315.48,344.61,319,345,321.5,343.94Zm-15.64,1.39,0.57-1.3a13.4,13.4,0,0,0,3.87,4.22C308.79,347.39,307.32,346.31,305.86,345.33Z" transform="translate(-253.65 -276)" fill="#f2efe2"/><path d="M482.27,294.71a80.67,80.67,0,0,0-60.39,19.75l1.26-4.65a50.53,50.53,0,0,0-18.19,20.09c-0.73-1.74-1.45-3.48-2.2-5.21-4.5,7.47-9.2,13.23-9.44,22.61L389.87,345a41.42,41.42,0,0,0-.75,8.78c-1.5-1.78-3.05-3.53-4.71-5.17-8.47-8.43-19-14.53-27.4-23.06-4.07-4.07-7.48-8.71-11.12-13.14-3.2-3.89-7.89-7.27-10.4-11.61a1.47,1.47,0,0,1-.27-0.92,1.56,1.56,0,0,1,.83-1l9.48-6.1a3.18,3.18,0,0,0,.89-0.74,2.58,2.58,0,0,0,.41-1.24c0.39-3.36-1.8-6.49-4.29-8.79a22.3,22.3,0,0,0-11.47-5.86c-4.87-.76-7.82,1.08-12,2.87-2.49,1.06-5.39,1.6-8,2.51-6.56,2.32-13,4.92-19.46,7.59-10,4.16-20.73,8.07-30,13.69-2.44,1.47-5,3.11-6.29,5.62-1.48,2.78-.84,5.56-1.15,8.52-0.26,2.47-.82,4.23-0.24,6.83a53.66,53.66,0,0,0,18.71,29.95c4.15,3.29,8.76,5.9,13.22,8.74,15.46,9.86,30.72,22.72,41.46,38a63.54,63.54,0,0,1,5.86,10.09c-0.32-.51-0.62-1-1-1.54-6.93,5.88-15.7,9-24.24,12.13a1.53,1.53,0,0,0-.81.51,1.23,1.23,0,0,0-.09.93,8.27,8.27,0,0,0-1.11,1.55c-9,16.28,7.69,35.26,25.09,29.16,6.4-2.25,11.42-7.32,16.78-11.58a103.13,103.13,0,0,1,27.42-15.1c8.61-3.31,16.88-3.86,24.77-9,3.63-2.38,7-5.52,8.51-9.69a21.18,21.18,0,0,0,1-4.74c1.41-12.65-3.43-24.8-10.12-35.39,4.81-2.19,11.38-1.15,14.53-5.38a5.74,5.74,0,0,1-2-2.17c2.45-.81,19.05-5.68,16.76-9.3l-2.85,0c7.51-5.77,16.21-9.72,24.65-14s16.84-9.09,23.18-16.13S484,304,482.27,294.71Zm-191.18,1.41c8.53-3.5,17-7.07,25.58-10.49,3.83-1.57,7.78-3.17,11.92-3.21s8.58,1.84,10.35,5.59c-14,8.4-29.32,14.35-44.55,20.25-3.14,1.22-6.24,2.68-9.41,3.91a1.6,1.6,0,0,1-.8.16,1.55,1.55,0,0,1-.72-0.4c-1.85-1.53-3.5-3.35-5.65-4.42-3.44-1.71-7.53-1.21-11.34-.66C272.64,301.05,283.41,299.26,291.09,296.12ZM333.23,437a16.17,16.17,0,0,1-2.42,3.11,12.29,12.29,0,0,1-10.6,2.79c-8.48-1.53-12.74-7.16-12.42-15.67a12.35,12.35,0,0,1,.29-2.27,7.48,7.48,0,0,0,1.26,1.49,26.65,26.65,0,0,1,6.13-4.59,77.82,77.82,0,0,1,8.31-3.55A84.24,84.24,0,0,0,334,413.36a1.42,1.42,0,0,0,.25-0.17C337.29,421,338,429.46,333.23,437ZM399.41,401c-0.94,3.82-3.26,7-7.94,9.84-3.66,2.22-7.79,3.45-11.86,4.71-8.45,2.6-16.43,6.48-24.54,10-1.86.81-3.89,1.79-4.63,3.67a50.35,50.35,0,0,0-3.1-19.34,58.07,58.07,0,0,0-5.95-10.72,139.5,139.5,0,0,0-32.87-34.33c-5.79-4.28-11.88-8.26-17.73-12.38-6.3-4.43-12.9-6.59-18-12.85s-7.79-14.74-6-22.61a18.92,18.92,0,0,1,13.66,4c1.08,0.86,2.18,1.89,3.56,2a5.88,5.88,0,0,0,2.8-.75c6.9-3.16,13.79-6.37,20.55-9.73,1.78-.88,19.64-8,20.34-7a181.76,181.76,0,0,0,11.5,14.64c9,8.25,18,16.46,27.45,24.08,7.54,6.05,15.47,11.83,21.54,19.34a20.25,20.25,0,0,1-3.69,11.29c-1.24,1.73-2.8,3.37-3.13,5.47s1.53,4.63,3.54,4a58.17,58.17,0,0,1,8.9-12.11,53.57,53.57,0,0,1,5.47,16.92C400,393.71,400.25,397.63,399.41,401Zm33-78.15q-9.13,7.62-17.66,15.9c-7.32,7.12-11.92,16.1-18.69,23.65l-0.13.13-0.41-.58c-0.37-.51-0.75-1-1.12-1.51v0a24.62,24.62,0,0,1,3.46-5.48c4.67-6.13,8.66-12.55,14.1-18.09a193.68,193.68,0,0,1,16.64-14.58c6.52-5.28,13.26-10.68,21.31-13Q441,315.76,432.4,322.9Z" transform="translate(-253.65 -276)" fill="#f2efe2"/><rect x="171.65" y="131.02" width="19.31" height="3.98" fill="#f2efe2"/><path d="M455.09,423.73a3.43,3.43,0,0,0-.78-1l-8.46-8.29c-0.23-.23-0.47-0.45-0.71-0.66H423.9c-0.24.21-.48,0.44-0.71,0.66l-8.46,8.29a3.43,3.43,0,0,0-.78,1,4.86,4.86,0,0,0-.33,1.51c-0.14,1.28-2,17.72-2,17.72H457.4s-1.84-16.43-2-17.72A4.86,4.86,0,0,0,455.09,423.73Z" transform="translate(-253.65 -276)" fill="#f2efe2"/><rect x="169.27" y="122.38" width="24.05" height="5.63" rx="2.26" ry="2.26" fill="#f2efe2"/></svg>