<svg id="Layer_1" data-name="Layer 1" xmlns="http://www.w3.org/2000/svg" viewBox="0 0 199 198.52"><title>resign</title><path d="M388.23,209.88h29.82a0.74,0.74,0,0,1,.78.78V286c0,3.56.16,2.88-.78,6.12-5.76,20.72-13.44,58.07-20.4,78.37-1.67,4.92-1.57,5.39-1.57,0V217.32a4.61,4.61,0,0,0-3.3-4.5c-1.52-.52-3-1-4.55-1.47-5.23-1.67-5.91-1.46,0-1.46h0Zm73.87,1.62a15.62,15.62,0,1,1-15.64,15.64,15.64,15.64,0,0,1,15.64-15.64h0ZM416.74,322.26l13.76,19.88a0.9,0.9,0,0,1,.1.63c-2.88,10.78-5.75,21.55-8.53,32.33-4.24,16.48-24,11.19-19.57-5.44,4.13-15.75,8.58-31.44,12.87-47.14a0.77,0.77,0,0,1,1.36-.26h0Zm36.1,6.59c-3.24-4.5-6.43-9.05-9.68-13.6-4.5-6.28-3.61-4.55-1.62-12.19,2-7.48,2.3-5.86-.57-13s-3.45-5.86-1.36-13.39c1.1-3.92.73-3.3,2.3,0.31,1.1,2.51,2.2,5.08,3.3,7.59,5.6,12.87,4,10.2,17,13.71,7,1.88,11.25,3.19,18.36,4.92,16.64,4.18,21.71-15.59,5.23-19.62-5.44-1.31-10.83-2.72-16.22-4.08-5.7-1.41-4.55-.42-6.91-5.81-3.35-7.64-6.75-15.43-10.46-22.7-4.92-9.68-16-7.48-18.2,2-3.82,16.43-9.16,32.54-13.76,48.81-2.77,9.78-4.14,10,2.88,20.72l14.7,22.24c5.07,7.79,5.28,8.79,7.64,17.73,1.15,4.34,2.3,8.69,3.4,13,4.24,16.48,23.91,11.2,19.57-5.44-1.88-7.32-4.08-14.65-6.17-21.92-4.66-16.58-2.09-9-9.42-19.25h0Zm10.1-77.22h46.14a0.73,0.73,0,0,1,.73.78v46.09a0.76,0.76,0,0,1-.73.78h-7.59c-3.66,0-2.51.42-1.88-2.67,1.72-8.69-5-15-12.92-16.9-5.39-1.31-10.78-2.72-16.17-4.08-3.82-.94-2.62.16-4.24-3.61-0.84-1.93-1.72-3.82-2.56-5.75-1.67-3.82-1.52-3.56-1.52-7.74v-6.12a0.73,0.73,0,0,1,.73-0.78h0Zm10.1,8.21h22.08a0.73,0.73,0,0,1,.73.79v7.48a0.76,0.76,0,0,1-.73.78H473a0.8,0.8,0,0,1-.78-0.78v-7.48a0.77,0.77,0,0,1,.78-0.79h0ZM311.85,191.37q39.86,12.55,79.78,25.16a0.81,0.81,0,0,1,.52.79V388.8a0.76,0.76,0,0,1-1,.73Q351.22,377,311.38,364.32a0.72,0.72,0,0,1-.57-0.73V192.1a0.79,0.79,0,0,1,1-.73h0Zm69.37,107.77c-6.12,6.17-12.19,12.35-18.31,18.52-0.42.47-1.36-.21-1.36-0.94v-18a1.25,1.25,0,0,0-.78-1c-17.11-6.17-21.76-7.9-38.92-14.07a1.2,1.2,0,0,1-.73-1V259.06a0.51,0.51,0,0,1,.73-0.52c17.16,6.23,21.82,7.9,38.92,14.07a0.53,0.53,0,0,0,.78-0.52V255.35c0-.79.94-0.73,1.36,0.05q9.18,15.85,18.36,31.81c5.08,8.89,5.08,6.69-.05,11.93h0Zm-47.5-108.08H437.2a0.73,0.73,0,0,1,.73.78v45.25c0,4.08.42,2.93-2,4.5-5.23,3.4-7.9,17.63-10.72,25.37-1.67,4.5-1.15,5.23-1.25,0-0.26-20,.05-40,0.05-60a0.76,0.76,0,0,0-.73-0.79H377c-4.61,0-5.23-.05-9.63-1.46-11.2-3.51-22.34-7.06-33.53-10.57-6.17-1.94-8.21-3.14-.16-3.14h0Z" transform="translate(-310.81 -191.05)" fill="#f2efe2" fill-rule="evenodd"/></svg>