<?xml version="1.0" encoding="utf-8"?>
<!-- Generator: Adobe Illustrator 19.2.1, SVG Export Plug-In . SVG Version: 6.00 Build 0)  -->
<svg version="1.1" id="Layer_1" xmlns="http://www.w3.org/2000/svg" xmlns:xlink="http://www.w3.org/1999/xlink" x="0px" y="0px"
	 viewBox="0 0 202.4 165.3" style="enable-background:new 0 0 202.4 165.3;" xml:space="preserve">
<style type="text/css">
	.st0{fill:#F2EFE2;stroke:#F2EFE2;stroke-miterlimit:10;}
</style>
<title>rolling</title>
<path class="st0" d="M162,111.5c-0.9,0-1.7-0.7-1.7-1.7V101c0-0.9,0.7-1.7,1.7-1.7c0.9,0,1.7,0.7,1.7,1.7v8.8
	C163.6,110.8,162.9,111.5,162,111.5C162,111.5,162,111.5,162,111.5z"/>
<path class="st0" d="M152.7,111.5c-0.9,0-1.7-0.7-1.7-1.7V92.3c0-7.2,6.7-9,10.3-9h7.1c0,0,1-0.2,1-0.6c0.1-0.9,0.8-1.6,1.7-1.6
	c0.9,0,1.6,0.8,1.6,1.7c0,0,0,0,0,0c0,2.4-2.2,3.7-4.2,3.9h-7.3c-0.7,0-7,0.2-7,5.7v17.5C154.3,110.8,153.6,111.5,152.7,111.5z"/>
<path class="st0" d="M191.5,110.9c-0.9,0-1.7-0.7-1.7-1.7v-8.1c0-0.9,0.7-1.7,1.7-1.7c0.9,0,1.7,0.7,1.7,1.7v8.1
	C193.2,110.2,192.4,110.9,191.5,110.9C191.5,110.9,191.5,110.9,191.5,110.9z"/>
<path class="st0" d="M200.7,111.2c-0.9,0-1.7-0.7-1.7-1.7V92.3c0-5.7-6.7-5.7-7-5.7H185c-1,0-1.9-0.3-2.6-1
	c-0.8-0.8-1.2-1.8-1.1-2.9c0-0.9,0.7-1.7,1.6-1.7c0,0,0,0,0,0l0,0c0.9,0,1.7,0.7,1.7,1.6c0,0.2,0,0.4,0.1,0.5
	c0.1,0.1,0.2,0.1,0.3,0.1h7.2c3.5,0,10.3,1.9,10.3,9v17.2C202.4,110.4,201.6,111.2,200.7,111.2C200.7,111.2,200.7,111.2,200.7,111.2
	z"/>
<path class="st0" d="M176.7,79.8c-7.6,0-13.8-6.9-13.8-15.4s6.2-15.4,13.8-15.4s13.8,6.9,13.8,15.4S184.3,79.8,176.7,79.8z
	 M176.7,52.4c-5.8,0-10.4,5.4-10.4,12s4.7,12,10.4,12s10.4-5.4,10.4-12S182.5,52.4,176.7,52.4z"/>
<path class="st0" d="M10.9,111.5c-0.9,0-1.7-0.7-1.7-1.7l0,0V101c0-0.9,0.7-1.7,1.7-1.7s1.7,0.7,1.7,1.7v8.8
	C12.6,110.8,11.8,111.5,10.9,111.5C10.9,111.5,10.9,111.5,10.9,111.5z"/>
<path class="st0" d="M1.7,111.5c-0.9,0-1.7-0.7-1.7-1.7l0,0V92.3c0-7.2,6.7-9,10.3-9h7.1c0,0,1-0.2,1-0.6c0-0.9,0.8-1.6,1.7-1.6
	c0.9,0,1.6,0.8,1.6,1.7c0,2.4-2.2,3.7-4.2,3.9h-7.3c-0.7,0-7,0.2-7,5.7v17.5C3.2,110.8,2.5,111.5,1.7,111.5z"/>
<path class="st0" d="M40.4,110.9c-0.9,0-1.7-0.7-1.7-1.7l0,0v-8.1c0-0.9,0.7-1.7,1.7-1.7s1.7,0.7,1.7,1.7v8.1
	C42.1,110.2,41.4,110.9,40.4,110.9L40.4,110.9z"/>
<path class="st0" d="M49.7,111.2c-0.9,0-1.7-0.7-1.7-1.7V92.3c0-5.7-6.7-5.7-7-5.7h-7.1c-1,0-1.9-0.3-2.6-1
	c-0.8-0.8-1.2-1.8-1.1-2.9c0-0.9,0.7-1.7,1.6-1.7c0,0,0,0,0,0l0,0c0.9,0,1.7,0.7,1.7,1.6c0,0.2,0,0.4,0.1,0.5
	c0.1,0.1,0.2,0.1,0.3,0.1h7.2c3.5,0,10.3,1.9,10.3,9v17.2C51.4,110.4,50.6,111.2,49.7,111.2C49.7,111.2,49.7,111.2,49.7,111.2z"/>
<path class="st0" d="M25.7,79.8c-7.6,0-13.8-6.9-13.8-15.4s6.2-15.4,13.8-15.4S39.4,56,39.4,64.5S33.2,79.8,25.7,79.8z M25.7,52.4
	c-5.8,0-10.4,5.4-10.4,12s4.7,12,10.4,12s10.4-5.4,10.4-12S31.4,52.4,25.7,52.4z"/>
<path class="st0" d="M126.7,121.2h-5.8c-0.9,0-1.7-0.7-1.7-1.7s0.7-1.7,1.7-1.7h4.2V53.5H78.2v66c0,0.9-0.7,1.7-1.7,1.7
	c-0.9,0-1.7-0.7-1.7-1.7l0,0V51.8c0-0.9,0.7-1.7,1.7-1.7h50.2c0.9,0,1.7,0.7,1.7,1.7v67.7C128.4,120.4,127.6,121.2,126.7,121.2z"/>
<path class="st0" d="M115.1,132.8c-0.2,0-0.3,0-0.5-0.1l-38.5-11.6c-0.7-0.2-1.2-0.9-1.2-1.6V51.8c0-0.9,0.7-1.7,1.7-1.7
	c0.2,0,0.3,0,0.5,0.1l38.6,11.6c0.7,0.2,1.2,0.9,1.2,1.6v67.7C116.8,132.1,116,132.8,115.1,132.8
	C115.1,132.8,115.1,132.8,115.1,132.8z M78.2,118.3l35.2,10.6V64.7L78.2,54.1V118.3L78.2,118.3z"/>
<path class="st0" d="M101.6,165.3c-28.5,0.1-54.9-14.6-70-38.7c-0.5-0.8-0.3-1.8,0.5-2.3c0.8-0.5,1.8-0.3,2.3,0.5
	c23.3,37.1,72.3,48.3,109.4,25c10.1-6.3,18.6-14.8,24.9-24.8c0.5-0.8,1.5-1,2.3-0.5c0.8,0.5,1,1.5,0.5,2.3
	C156.4,150.8,130,165.3,101.6,165.3z"/>
<path class="st0" d="M35.6,37.4c-0.9,0-1.7-0.7-1.7-1.7c0-0.3,0.1-0.7,0.3-1c26.4-37.2,78-46,115.2-19.6
	c7.4,5.2,13.8,11.6,19.1,18.9c0.5,0.7,0.4,1.8-0.4,2.3s-1.8,0.4-2.3-0.4C140.2,0.6,90.6-7.3,55.1,18.3c-7,5.1-13.2,11.3-18.2,18.4
	C36.6,37.2,36.1,37.4,35.6,37.4z"/>
<path class="st0" d="M29.5,136.5c-0.9,0-1.7-0.7-1.7-1.7c0-0.1,0-0.3,0.1-0.4l2.7-10.7c0.2-0.9,1.1-1.4,2-1.2l10.7,2.7
	c0.9,0.2,1.4,1.1,1.2,2c-0.2,0.9-1.1,1.4-2,1.2l0,0l-9.1-2.3l-2.3,9.1C30.9,135.9,30.3,136.5,29.5,136.5z"/>
<path class="st0" d="M168.9,39.5c-0.1,0-0.2,0-0.3,0l-10.9-2.1c-0.9-0.2-1.5-1-1.3-2s1-1.5,2-1.3l0,0l9.2,1.8l1.8-9.2
	c0.2-0.9,1-1.5,2-1.3s1.5,1,1.3,2l0,0l-2.1,10.9C170.3,38.9,169.7,39.5,168.9,39.5z"/>
</svg>
