<svg id="Layer_1" data-name="Layer 1" xmlns="http://www.w3.org/2000/svg" viewBox="0 0 229.74 229.74"><title>sp</title><path d="M319.66,315.95c18.71,7.17,33.73,26.5,40.39,51.48,2.46,9.24,3.14,8.4-4.48,14.12A85.17,85.17,0,0,1,329.19,395c-8.46,2.52-6.78,2.52-8.29-5.83-3.3-18.65-6.66-37.31-10-55.91-0.56-3.19-1.18-2.86,1.74-3.53,3.92-.89,3.36-0.11,3.36-4v-7.45c0-4.15-.56-3.92,3.64-2.3h0Zm61.51-36.3L336,310.73c-8.85,6.11-5,4.26-14.51.62-7.23-2.8-16.75,3.75-1-6.05a31.09,31.09,0,0,0,14.73-26.44c0-5.38-1-3.58,3.92-7q12-8.32,24.14-16.64c9.47-6.5,9.69-5-.56-13.39a91.34,91.34,0,0,0-57.92-20.62c-65.55,0-109.18,66.72-84.93,126.27,2.52,6.22,1.62,5.38,6.95,1.68q17-11.68,33.89-23.36c5.15-3.53,3,.28.84,2.8-9.64,11-16.19,25.1-19.66,38.88-2.07,8.29-2.91,9.69,2.69,14.57a91.75,91.75,0,0,0,146.94-99.1c-3.47-10-2.35-8.85-10.36-3.3h0Zm-76.36-81.56A114.87,114.87,0,1,1,190,312.92,114.87,114.87,0,0,1,304.82,198.08h0Zm-0.67,54.67A26.13,26.13,0,1,1,278,278.86a26.13,26.13,0,0,1,26.11-26.1h0ZM246.72,368.66c6.5-25.83,22-45.83,41.34-52.94,4.87-1.79,4.2-2,4.2,2.75v7.23c0,3.92-.56,3.14,3.31,4,3,0.67,2.35.34,1.79,3.53-3.36,18.82-6.78,37.7-10.14,56.58-1.4,7.84.05,7.56-8.07,5a84.72,84.72,0,0,1-29.58-16c-5.21-4.31-4.54-3.53-2.86-10.19h0Z" transform="translate(-189.98 -198.08)" fill="#f2efe2" fill-rule="evenodd"/></svg>