<?xml version="1.0" encoding="utf-8"?>
<!-- Generator: Adobe Illustrator 19.2.1, SVG Export Plug-In . SVG Version: 6.00 Build 0)  -->
<svg version="1.1" id="_ÎÓÈ_1" xmlns="http://www.w3.org/2000/svg" xmlns:xlink="http://www.w3.org/1999/xlink" x="0px" y="0px"
	 viewBox="0 0 395.2 317.3" style="enable-background:new 0 0 395.2 317.3;" xml:space="preserve">
<style type="text/css">
	.st0{fill:#F9F4F4;}
</style>
<title>store</title>
<path class="st0" d="M367.9,148.4h-16.1c-6.1,0-11.8-2.5-15.9-7c-1.2-1.3-3.3-1.4-4.6-0.1l-0.1,0.1c-4.1,4.5-9.9,7-15.9,7h-22.6
	c-6.3,0-12.3-2.8-16.5-7.5c-1.2-1.4-3.2-1.5-4.6-0.3c-0.1,0.1-0.2,0.2-0.3,0.3c-4.1,4.8-10.1,7.5-16.5,7.5h-12.5
	c-6.4,0-12.4-2.8-16.5-7.6c-1.2-1.4-3.2-1.5-4.6-0.3c-0.1,0.1-0.2,0.2-0.3,0.3c-4.1,4.8-10.2,7.6-16.5,7.6h-14.8
	c-6.1,0-11.9-2.6-16-7.1c-1.2-1.3-3.3-1.4-4.6-0.2c-0.1,0.1-0.1,0.1-0.2,0.2c-4.1,4.5-9.9,7.1-16,7.1h-12.5
	c-6.3,0-12.3-2.8-16.5-7.5c-1.2-1.4-3.2-1.5-4.6-0.3c-0.1,0.1-0.2,0.2-0.3,0.3c-4.1,4.8-10.1,7.5-16.5,7.5H79.9
	c-6.1,0-11.8-2.5-15.9-7c-1.2-1.3-3.3-1.4-4.6-0.1l-0.1,0.1c-4.1,4.5-9.9,7-15.9,7H26v151.5H9.7v17.4H387v-17.4h-19L367.9,148.4
	L367.9,148.4z M141.8,188.3c0-1.9,1.5-3.4,3.4-3.4l0,0h63.6c1.9,0,3.4,1.5,3.4,3.4l0,0v65.1c0,1.9-1.5,3.4-3.4,3.4l0,0h-63.6
	c-1.9,0-3.4-1.5-3.4-3.4l0,0L141.8,188.3L141.8,188.3z M62.2,188.3c0-1.9,1.5-3.4,3.3-3.4l0,0h63.6c1.9,0,3.4,1.5,3.4,3.4l0,0v65.1
	c0,1.9-1.5,3.4-3.4,3.4l0,0H65.6c-1.9,0-3.4-1.5-3.4-3.4l0,0L62.2,188.3L62.2,188.3z M250.6,187.7c0-1.7,1.3-3,3-3h58.8
	c1.7,0,3,1.3,3,3v112.1h-64.8L250.6,187.7L250.6,187.7z"/>
<path class="st0" d="M43.4,141.7c8.4,0,15.1-6.8,15.1-15.1l0,0V107c0-1.6,0.2-3.1,0.7-4.6L91.2,3c0.4-1.2-0.2-2.5-1.4-2.9
	C89.6,0,89.3,0,89.1,0h-22C56.9,0,47.7,5.8,43.4,14.9l-42,87.7c-1,2-1.5,4.3-1.5,6.5v17.4c0,8.4,6.8,15.1,15.1,15.1h28.2L43.4,141.7
	z"/>
<path class="st0" d="M64.8,109.2v17.3c0,8.4,6.8,15.1,15.1,15.1h22.6c8.4,0,15.1-6.8,15.1-15.1V106c0-1,0.1-1.9,0.3-2.9L137.4,2.7
	c0.2-1.2-0.6-2.4-1.8-2.7c-0.1,0-0.3,0-0.4,0h-33.8c-1,0-1.9,0.6-2.2,1.6l-33.6,103C65.1,106.1,64.8,107.7,64.8,109.2z M69.7,109.2
	c0-1.1,0.2-2.1,0.5-3.2l33-101.2h28.7l-18.8,97.3c-0.2,1.3-0.4,2.5-0.4,3.8v20.5c0,5.6-4.6,10.2-10.2,10.2H79.9
	c-5.6,0-10.2-4.6-10.2-10.2L69.7,109.2L69.7,109.2z"/>
<path class="st0" d="M125.2,106v20.6c0,8.4,6.8,15.1,15.1,15.1h12.5c8.4,0,15.1-6.8,15.1-15.1v-20.2c0-0.4,0-0.9,0-1.3l8.7-102.6
	c0.1-1.2-0.8-2.3-2.1-2.5c-0.1,0-0.1,0-0.2,0h-28.2c-1.1,0-2,0.8-2.2,1.9l-18.5,101.4C125.3,104.1,125.2,105,125.2,106z"/>
<path class="st0" d="M174.5,106.3v20.2c0,8.4,6.8,15.1,15.1,15.1h14.7c8.4,0,15.1-6.8,15.1-15.1v-20.3c0-0.4,0-0.8,0-1.1l-7.9-103
	c0-1.1-1-2.1-2.2-2.1h-23.7c-1.2,0-2.2,0.9-2.3,2.1l-8.8,103C174.5,105.5,174.5,105.9,174.5,106.3z M179.4,106.3c0-0.3,0-0.6,0-0.9
	L188,4.9h18.8l7.7,100.6c0,0.3,0,0.5,0,0.8v20.3c0,5.6-4.6,10.2-10.2,10.2h-14.7c-5.6,0-10.2-4.6-10.2-10.2L179.4,106.3L179.4,106.3
	z"/>
<path class="st0" d="M393.7,102.6L352,15.5C347.5,6.1,337.9,0,327.4,0h-21.3c-1.3,0-2.3,1-2.3,2.3c0,0.3,0,0.5,0.1,0.7l32,99.3
	c0.5,1.5,0.7,3.1,0.7,4.6v19.6c0,8.4,6.8,15.1,15.1,15.1H380c8.4,0,15.1-6.8,15.1-15.1V109C395.2,106.9,394.7,104.7,393.7,102.6z"/>
<path class="st0" d="M277.3,103.2c0.2,0.9,0.3,1.9,0.3,2.9v20.5c0,8.4,6.8,15.1,15.1,15.1h22.6c8.4,0,15.1-6.8,15.1-15.1v-17.3
	c0-1.6-0.3-3.2-0.8-4.7L296,1.5c-0.3-0.9-1.2-1.6-2.2-1.6H260c-1.3,0-2.3,1-2.3,2.3c0,0.1,0,0.3,0,0.4L277.3,103.2z M292,4.9
	l33,101.2c0.3,1,0.5,2.1,0.5,3.2v17.3c0,5.6-4.6,10.2-10.2,10.2h-22.6c-5.6,0-10.2-4.6-10.2-10.2V106c0-1.3-0.1-2.6-0.4-3.8
	L263.3,4.9H292z"/>
<path class="st0" d="M227.2,106.3v20.2c0,8.4,6.8,15.1,15.1,15.1h12.5c8.4,0,15.1-6.8,15.1-15.1V106c0-0.9-0.1-1.8-0.2-2.7
	L251.2,1.9C251,0.8,250.1,0,249,0h-28.2c-1.3,0-2.3,1-2.3,2.3c0,0.1,0,0.1,0,0.2l8.7,102.6C227.2,105.5,227.2,105.9,227.2,106.3z"/>
</svg>
